<svg width="343" height="68" viewBox="0 0 343 68" fill="none" xmlns="http://www.w3.org/2000/svg">
  <g clip-path="url(#clip0_101_2)">
    <g clip-path="url(#clip1_101_2)">
      <path opacity="0.8"
        d="M24.134 44.8443H67.4345V1.93312H24.134C18.0726 1.93312 12.2596 4.19362 7.97356 8.21732C3.68755 12.241 1.27969 17.6983 1.27969 23.3887C1.27969 29.0791 3.68755 34.5364 7.97356 38.5601C12.2596 42.5838 18.0726 44.8443 24.134 44.8443Z"
        fill="#9AC74E" />
      <path opacity="0.8"
        d="M44.5802 23.3692H1.27969V66.2804H44.5802C50.6415 66.2804 56.4546 64.0203 60.7406 59.9974C65.0266 55.9745 67.4345 50.5182 67.4345 44.829C67.4345 39.1397 65.0266 33.6834 60.7406 29.6605C56.4546 25.6376 50.6415 23.3775 44.5802 23.3775V23.3692Z"
        fill="#D3E4B0" />
    </g>
    <path
      d="M96.4162 62.6278C89.4193 62.6278 84.115 60.7461 80.5033 56.9826C76.8916 53.2072 75.0857 47.7883 75.0857 40.7258C75.0857 33.6395 77.0406 28.1491 80.9503 24.2546C84.848 20.3601 90.3907 18.4128 97.5784 18.4128C102.537 18.4128 107.204 19.4907 111.578 21.6463L107.251 32.5438C105.463 31.7696 103.812 31.1503 102.299 30.6858C100.797 30.2214 99.2233 29.9891 97.5784 29.9891C95.1944 29.9891 93.3468 30.9181 92.0357 32.776C90.7245 34.6339 90.0689 37.26 90.0689 40.6543C90.0689 47.4905 92.6018 50.9086 97.6677 50.9086C101.995 50.9086 106.143 49.6521 110.112 47.1392V58.8584C106.31 61.3713 101.744 62.6278 96.4162 62.6278Z"
      fill="#333333" />
    <path
      d="M133.132 19.1632V61.8775H118.381V19.1632H133.132ZM118.005 8.53369C118.005 6.31847 118.619 4.66897 119.847 3.58518C121.087 2.51331 123.077 1.97737 125.819 1.97737C128.56 1.97737 130.557 2.52522 131.808 3.62091C133.072 4.72852 133.704 6.36611 133.704 8.53369C133.704 12.8569 131.075 15.0186 125.819 15.0186C120.61 15.0186 118.005 12.8569 118.005 8.53369Z"
      fill="#333333" />
    <path d="M167.843 18.9309V61.8775H152.931V18.9309H139.468V6.76511H181.271V18.9309H167.843Z"
      fill="#333333" />
    <path
      d="M213.539 18.4128C214.826 18.4128 216.048 18.5141 217.204 18.7165L218.044 18.8595L216.721 32.776C215.505 32.4664 213.831 32.3115 211.697 32.3115C208.479 32.3115 206.142 33.0499 204.688 34.5267C203.222 35.9916 202.489 38.1056 202.489 40.8687V61.8775H187.738V19.1632H198.716L201.023 25.9874H201.738C202.966 23.7246 204.682 21.8964 206.887 20.503C209.092 19.1096 211.31 18.4128 213.539 18.4128Z"
      fill="#333333" />
    <path
      d="M265.161 61.8775H254.022L252.18 56.5539H251.304C250.077 58.519 248.36 60.0255 246.155 61.0736C243.95 62.1098 241.363 62.6278 238.395 62.6278C233.699 62.6278 230.039 61.2642 227.417 58.5368C224.807 55.8095 223.501 51.9567 223.501 46.9784V19.1632H238.252V42.4944C238.252 45.2813 238.646 47.3952 239.432 48.8363C240.231 50.2655 241.536 50.9801 243.348 50.9801C245.887 50.9801 247.699 49.9797 248.783 47.9788C249.856 45.9899 250.393 42.6194 250.393 37.8674V19.1632H265.161V61.8775Z"
      fill="#333333" />
    <path
      d="M305.4 48.7649C305.4 53.3382 303.839 56.792 300.716 59.1264C297.593 61.4607 293.117 62.6278 287.288 62.6278C284.117 62.6278 281.358 62.4611 279.01 62.1276C276.673 61.7822 274.284 61.157 271.84 60.2518V48.4612C274.129 49.4616 276.638 50.2893 279.367 50.9443C282.097 51.5994 284.535 51.9269 286.68 51.9269C289.875 51.9269 291.472 51.1945 291.472 49.7296C291.472 48.9792 291.025 48.3123 290.131 47.7287C289.237 47.1332 286.638 45.978 282.335 44.263C278.414 42.6552 275.672 40.827 274.111 38.7785C272.549 36.7301 271.768 34.1397 271.768 31.0074C271.768 27.0296 273.306 23.933 276.381 21.7178C279.445 19.5145 283.784 18.4128 289.398 18.4128C292.211 18.4128 294.857 18.7165 297.336 19.3239C299.816 19.9432 302.39 20.8424 305.06 22.0215L301.055 31.5255C299.089 30.6442 297.015 29.8998 294.833 29.2924C292.64 28.6731 290.852 28.3634 289.469 28.3634C287.05 28.3634 285.84 28.953 285.84 30.132C285.84 30.8585 286.263 31.4778 287.109 31.99C287.956 32.514 290.387 33.568 294.404 35.152C297.408 36.3787 299.643 37.5816 301.109 38.7607C302.575 39.9397 303.66 41.3332 304.363 42.941C305.054 44.5369 305.4 46.4782 305.4 48.7649Z"
      fill="#333333" />
    <path
      d="M335.139 50.9801C337.13 50.9801 339.508 50.4918 342.273 49.5152V60.2518C340.283 61.1093 338.387 61.7227 336.587 62.0919C334.8 62.4492 332.696 62.6278 330.276 62.6278C325.317 62.6278 321.747 61.419 319.566 59.0013C317.373 56.5717 316.276 52.844 316.276 47.818V30.2035H311.109V24.2188L317.671 19.574L321.479 10.606H331.152V19.1632H341.63V30.2035H331.152V46.8355C331.152 49.5985 332.481 50.9801 335.139 50.9801Z"
      fill="#333333" />
  </g>
  <defs>
    <clipPath id="clip0_101_2">
      <rect width="342.273" height="68" fill="white" />
    </clipPath>
    <clipPath id="clip1_101_2">
      <rect width="68.0572" height="68" fill="white" />
    </clipPath>
  </defs>
</svg>