<svg width="68" height="68" viewBox="0 0 68 68" fill="none" xmlns="http://www.w3.org/2000/svg">
  <g clip-path="url(#clip0_101_2)">
    <g clip-path="url(#clip1_101_2)">
      <path opacity="0.8"
        d="M24.134 44.8443H67.4345V1.93312H24.134C18.0726 1.93312 12.2596 4.19362 7.97356 8.21732C3.68755 12.241 1.27969 17.6983 1.27969 23.3887C1.27969 29.0791 3.68755 34.5364 7.97356 38.5601C12.2596 42.5838 18.0726 44.8443 24.134 44.8443Z"
        fill="#9AC74E" />
      <path opacity="0.8"
        d="M44.5802 23.3692H1.27969V66.2804H44.5802C50.6415 66.2804 56.4546 64.0203 60.7406 59.9974C65.0266 55.9745 67.4345 50.5182 67.4345 44.829C67.4345 39.1397 65.0266 33.6834 60.7406 29.6605C56.4546 25.6376 50.6415 23.3775 44.5802 23.3775V23.3692Z"
        fill="#D3E4B0" />
    </g>
  </g>
  <defs>
    <clipPath id="clip0_101_2">
      <rect width="342.273" height="68" fill="white" />
    </clipPath>
    <clipPath id="clip1_101_2">
      <rect width="68.0572" height="68" fill="white" />
    </clipPath>
  </defs>
</svg>